<svg width="1024" height="168" viewBox="0 0 1024 168" fill="none" xmlns="http://www.w3.org/2000/svg">
<rect y="1.3324" width="1024" height="166.556" fill="#95E1D3"/>
<line x1="810.1" y1="1.74808e-08" x2="810.1" y2="167.889" stroke="white"/>
<line x1="810.1" y1="1.74808e-08" x2="810.1" y2="167.889" stroke="white"/>
<line x1="1008.5" y1="1.71735e-08" x2="1008.5" y2="167.889" stroke="white"/>
<line x1="1008.5" y1="1.71735e-08" x2="1008.5" y2="167.889" stroke="white"/>
<path d="M883.366 80.3324C883.366 78.4444 883.574 76.7644 883.99 75.2924C884.438 73.8204 885.206 72.4924 886.294 71.3084C887.382 70.1244 888.918 68.9724 890.902 67.8524C892.662 66.9244 894.134 66.1404 895.318 65.5004C896.502 64.8604 897.398 64.2524 898.006 63.6764C898.646 63.0684 898.966 62.3644 898.966 61.5644C898.966 60.6044 898.582 59.7884 897.814 59.1164C897.046 58.4124 895.958 58.0604 894.55 58.0604C893.014 58.0604 891.686 58.4284 890.566 59.1644C889.478 59.9004 888.534 60.7484 887.734 61.7084L883.654 57.0044C884.23 56.3964 885.094 55.7404 886.246 55.0364C887.398 54.3324 888.774 53.7244 890.374 53.2124C891.974 52.7004 893.734 52.4444 895.654 52.4444C898.918 52.4444 901.446 53.2124 903.238 54.7484C905.062 56.2524 905.974 58.2044 905.974 60.6044C905.974 62.1084 905.622 63.3884 904.918 64.4444C904.246 65.4684 903.398 66.3484 902.374 67.0844C901.382 67.7884 900.422 68.4124 899.494 68.9564C897.446 69.9804 895.83 70.8764 894.646 71.6444C893.494 72.4124 892.566 73.3724 891.862 74.5244H906.502V80.3324H883.366ZM923.612 86.4284V79.2764H909.596V73.5644L925.676 52.9244H930.044V73.5164H934.268V79.2764H930.044V86.4284H923.612ZM916.028 73.5164H924.332V62.6684L916.028 73.5164ZM854.713 129.332V116.552H856.333V127.892H863.461V129.332H854.713ZM869.076 129.512C868.14 129.512 867.312 129.29 866.592 128.846C865.884 128.39 865.332 127.796 864.936 127.064C864.54 126.32 864.342 125.516 864.342 124.652C864.342 123.776 864.54 122.972 864.936 122.24C865.344 121.496 865.902 120.902 866.61 120.458C867.33 120.002 868.152 119.774 869.076 119.774C870.012 119.774 870.834 120.002 871.542 120.458C872.262 120.902 872.82 121.496 873.216 122.24C873.624 122.972 873.828 123.776 873.828 124.652C873.828 125.516 873.624 126.32 873.216 127.064C872.82 127.796 872.268 128.39 871.56 128.846C870.852 129.29 870.024 129.512 869.076 129.512ZM865.962 124.67C865.962 125.318 866.1 125.906 866.376 126.434C866.664 126.962 867.042 127.382 867.51 127.694C867.978 127.994 868.5 128.144 869.076 128.144C869.652 128.144 870.174 127.988 870.642 127.676C871.122 127.364 871.5 126.944 871.776 126.416C872.064 125.876 872.208 125.282 872.208 124.634C872.208 123.986 872.064 123.398 871.776 122.87C871.5 122.342 871.122 121.922 870.642 121.61C870.174 121.298 869.652 121.142 869.076 121.142C868.5 121.142 867.978 121.304 867.51 121.628C867.042 121.94 866.664 122.36 866.376 122.888C866.1 123.416 865.962 124.01 865.962 124.67ZM880.716 121.322C879.924 121.334 879.222 121.538 878.61 121.934C878.01 122.318 877.584 122.852 877.332 123.536V129.332H875.748V119.936H877.224V122.114C877.548 121.466 877.974 120.944 878.502 120.548C879.042 120.14 879.606 119.912 880.194 119.864C880.314 119.864 880.416 119.864 880.5 119.864C880.584 119.864 880.656 119.87 880.716 119.882V121.322ZM886.445 129.512C885.509 129.512 884.681 129.29 883.961 128.846C883.241 128.402 882.677 127.808 882.269 127.064C881.861 126.32 881.657 125.51 881.657 124.634C881.657 123.746 881.861 122.936 882.269 122.204C882.677 121.472 883.241 120.884 883.961 120.44C884.693 119.996 885.527 119.774 886.463 119.774C887.411 119.774 888.233 120.002 888.929 120.458C889.637 120.902 890.183 121.49 890.567 122.222C890.963 122.942 891.161 123.722 891.161 124.562C891.161 124.826 891.149 125.03 891.125 125.174H883.331C883.379 125.786 883.547 126.332 883.835 126.812C884.135 127.28 884.519 127.652 884.987 127.928C885.455 128.192 885.959 128.324 886.499 128.324C887.075 128.324 887.615 128.18 888.119 127.892C888.635 127.604 888.989 127.226 889.181 126.758L890.549 127.136C890.249 127.832 889.727 128.402 888.983 128.846C888.239 129.29 887.393 129.512 886.445 129.512ZM883.277 124.076H889.685C889.637 123.464 889.463 122.924 889.163 122.456C888.863 121.988 888.479 121.622 888.011 121.358C887.543 121.094 887.027 120.962 886.463 120.962C885.911 120.962 885.401 121.094 884.933 121.358C884.465 121.622 884.081 121.988 883.781 122.456C883.493 122.924 883.325 123.464 883.277 124.076ZM907.088 129.332H905.504V124.076C905.504 123.092 905.342 122.366 905.018 121.898C904.706 121.43 904.238 121.196 903.614 121.196C902.978 121.196 902.402 121.43 901.886 121.898C901.37 122.354 901.004 122.948 900.788 123.68V129.332H899.204V124.076C899.204 123.08 899.048 122.354 898.736 121.898C898.424 121.43 897.956 121.196 897.332 121.196C896.708 121.196 896.132 121.424 895.604 121.88C895.088 122.324 894.722 122.918 894.506 123.662V129.332H892.922V119.936H894.362V121.952C894.746 121.256 895.244 120.722 895.856 120.35C896.468 119.966 897.158 119.774 897.926 119.774C898.706 119.774 899.33 119.99 899.798 120.422C900.266 120.842 900.554 121.388 900.662 122.06C901.502 120.536 902.696 119.774 904.244 119.774C904.964 119.774 905.528 119.948 905.936 120.296C906.356 120.632 906.65 121.1 906.818 121.7C906.998 122.288 907.088 122.96 907.088 123.716V129.332ZM914.103 118.172V116.192H915.687V118.172H914.103ZM914.103 129.332V119.936H915.687V129.332H914.103ZM923.31 129.512C922.542 129.512 921.858 129.32 921.258 128.936C920.658 128.552 920.184 128.066 919.836 127.478V133.166H918.252V119.936H919.656V121.7C920.028 121.124 920.514 120.662 921.114 120.314C921.714 119.954 922.368 119.774 923.076 119.774C923.724 119.774 924.318 119.906 924.858 120.17C925.398 120.434 925.866 120.794 926.262 121.25C926.658 121.706 926.964 122.228 927.18 122.816C927.408 123.392 927.522 123.998 927.522 124.634C927.522 125.522 927.342 126.338 926.982 127.082C926.634 127.826 926.142 128.42 925.506 128.864C924.87 129.296 924.138 129.512 923.31 129.512ZM922.824 128.144C923.448 128.144 923.988 127.976 924.444 127.64C924.9 127.304 925.254 126.866 925.506 126.326C925.77 125.786 925.902 125.222 925.902 124.634C925.902 123.998 925.758 123.416 925.47 122.888C925.194 122.36 924.81 121.94 924.318 121.628C923.838 121.304 923.292 121.142 922.68 121.142C922.308 121.142 921.912 121.238 921.492 121.43C921.084 121.622 920.724 121.88 920.412 122.204C920.112 122.516 919.92 122.864 919.836 123.248V125.93C920.1 126.554 920.502 127.082 921.042 127.514C921.594 127.934 922.188 128.144 922.824 128.144ZM932.689 129.512C931.909 129.512 931.177 129.386 930.493 129.134C929.809 128.87 929.221 128.48 928.729 127.964L929.341 126.848C929.881 127.352 930.421 127.712 930.961 127.928C931.501 128.144 932.053 128.252 932.617 128.252C933.265 128.252 933.793 128.132 934.201 127.892C934.609 127.64 934.813 127.274 934.813 126.794C934.813 126.446 934.705 126.188 934.489 126.02C934.285 125.852 933.991 125.714 933.607 125.606C933.223 125.486 932.767 125.354 932.239 125.21C931.267 124.934 930.523 124.61 930.007 124.238C929.503 123.854 929.251 123.296 929.251 122.564C929.251 121.676 929.587 120.992 930.259 120.512C930.943 120.02 931.813 119.774 932.869 119.774C934.285 119.774 935.401 120.2 936.217 121.052L935.497 122.15C934.765 121.394 933.859 121.016 932.779 121.016C932.455 121.016 932.137 121.058 931.825 121.142C931.513 121.214 931.255 121.352 931.051 121.556C930.847 121.748 930.745 122.024 930.745 122.384C930.745 122.828 930.925 123.146 931.285 123.338C931.645 123.53 932.173 123.728 932.869 123.932C933.577 124.136 934.189 124.34 934.705 124.544C935.233 124.748 935.641 125.012 935.929 125.336C936.217 125.66 936.361 126.11 936.361 126.686C936.361 127.574 936.025 128.27 935.353 128.774C934.681 129.266 933.793 129.512 932.689 129.512ZM938.166 125.57V119.936H939.75V125.264C939.75 127.184 940.416 128.144 941.748 128.144C942.396 128.144 943.002 127.94 943.566 127.532C944.142 127.112 944.568 126.542 944.844 125.822V119.936H946.428V127.532C946.428 127.904 946.596 128.096 946.932 128.108V129.332C946.752 129.356 946.608 129.368 946.5 129.368C946.404 129.38 946.308 129.386 946.212 129.386C945.912 129.386 945.654 129.296 945.438 129.116C945.222 128.924 945.108 128.69 945.096 128.414L945.06 127.316C944.652 128.012 944.1 128.552 943.404 128.936C942.72 129.32 941.97 129.512 941.154 129.512C939.162 129.512 938.166 128.198 938.166 125.57ZM963.232 129.332H961.648V124.076C961.648 123.092 961.486 122.366 961.162 121.898C960.85 121.43 960.382 121.196 959.758 121.196C959.122 121.196 958.546 121.43 958.03 121.898C957.514 122.354 957.148 122.948 956.932 123.68V129.332H955.348V124.076C955.348 123.08 955.192 122.354 954.88 121.898C954.568 121.43 954.1 121.196 953.476 121.196C952.852 121.196 952.276 121.424 951.748 121.88C951.232 122.324 950.866 122.918 950.65 123.662V129.332H949.066V119.936H950.506V121.952C950.89 121.256 951.388 120.722 952 120.35C952.612 119.966 953.302 119.774 954.07 119.774C954.85 119.774 955.474 119.99 955.942 120.422C956.41 120.842 956.698 121.388 956.806 122.06C957.646 120.536 958.84 119.774 960.388 119.774C961.108 119.774 961.672 119.948 962.08 120.296C962.5 120.632 962.794 121.1 962.962 121.7C963.142 122.288 963.232 122.96 963.232 123.716V129.332Z" fill="white"/>
<line x1="611.7" y1="1.74808e-08" x2="611.7" y2="167.889" stroke="white"/>
<line x1="611.7" y1="1.74808e-08" x2="611.7" y2="167.889" stroke="white"/>
<line x1="810.1" y1="1.71735e-08" x2="810.1" y2="167.889" stroke="white"/>
<line x1="810.1" y1="1.71735e-08" x2="810.1" y2="167.889" stroke="white"/>
<path d="M683.67 64.7804C683.67 62.5724 684.214 60.5724 685.302 58.7804C686.39 56.9884 687.878 55.5644 689.766 54.5084C691.654 53.4524 693.766 52.9244 696.102 52.9244C698.694 52.9244 700.918 53.5484 702.774 54.7964C704.662 56.0444 706.118 57.8364 707.142 60.1724C708.166 62.5084 708.678 65.3084 708.678 68.5724C708.678 74.7804 707.478 79.5164 705.078 82.7804C702.71 86.0764 699.51 87.7244 695.478 87.7244C693.334 87.7244 691.35 87.2604 689.526 86.3324C687.702 85.4044 686.166 84.0764 684.918 82.3484L688.614 78.3164C689.382 79.5004 690.374 80.4284 691.59 81.1004C692.838 81.8044 694.166 82.1564 695.574 82.1564C697.718 82.1564 699.43 81.3084 700.71 79.6124C701.99 77.8844 702.646 75.4844 702.678 72.4124C702.038 73.5644 701.078 74.4764 699.798 75.1484C698.55 75.8204 697.126 76.1564 695.526 76.1564C693.286 76.1564 691.27 75.6604 689.478 74.6684C687.686 73.6444 686.262 72.2844 685.206 70.5884C684.182 68.8604 683.67 66.9244 683.67 64.7804ZM696.102 58.3484C694.95 58.3484 693.894 58.6524 692.934 59.2604C692.006 59.8364 691.254 60.6204 690.678 61.6124C690.102 62.5724 689.814 63.6284 689.814 64.7804C689.814 65.9324 690.086 66.9884 690.63 67.9484C691.206 68.8764 691.974 69.6284 692.934 70.2044C693.894 70.7484 694.95 71.0204 696.102 71.0204C697.254 71.0204 698.294 70.7484 699.222 70.2044C700.182 69.6284 700.95 68.8764 701.526 67.9484C702.102 66.9884 702.39 65.9324 702.39 64.7804C702.39 63.6284 702.102 62.5724 701.526 61.6124C700.95 60.6204 700.182 59.8364 699.222 59.2604C698.262 58.6524 697.222 58.3484 696.102 58.3484ZM711.936 64.7804C711.936 62.5724 712.48 60.5724 713.568 58.7804C714.656 56.9884 716.144 55.5644 718.032 54.5084C719.92 53.4524 722.032 52.9244 724.368 52.9244C726.96 52.9244 729.184 53.5484 731.04 54.7964C732.928 56.0444 734.384 57.8364 735.408 60.1724C736.432 62.5084 736.944 65.3084 736.944 68.5724C736.944 74.7804 735.744 79.5164 733.344 82.7804C730.976 86.0764 727.776 87.7244 723.744 87.7244C721.6 87.7244 719.616 87.2604 717.792 86.3324C715.968 85.4044 714.432 84.0764 713.184 82.3484L716.88 78.3164C717.648 79.5004 718.64 80.4284 719.856 81.1004C721.104 81.8044 722.432 82.1564 723.84 82.1564C725.984 82.1564 727.696 81.3084 728.976 79.6124C730.256 77.8844 730.912 75.4844 730.944 72.4124C730.304 73.5644 729.344 74.4764 728.064 75.1484C726.816 75.8204 725.392 76.1564 723.792 76.1564C721.552 76.1564 719.536 75.6604 717.744 74.6684C715.952 73.6444 714.528 72.2844 713.472 70.5884C712.448 68.8604 711.936 66.9244 711.936 64.7804ZM724.368 58.3484C723.216 58.3484 722.16 58.6524 721.2 59.2604C720.272 59.8364 719.52 60.6204 718.944 61.6124C718.368 62.5724 718.08 63.6284 718.08 64.7804C718.08 65.9324 718.352 66.9884 718.896 67.9484C719.472 68.8764 720.24 69.6284 721.2 70.2044C722.16 70.7484 723.216 71.0204 724.368 71.0204C725.52 71.0204 726.56 70.7484 727.488 70.2044C728.448 69.6284 729.216 68.8764 729.792 67.9484C730.368 66.9884 730.656 65.9324 730.656 64.7804C730.656 63.6284 730.368 62.5724 729.792 61.6124C729.216 60.6204 728.448 59.8364 727.488 59.2604C726.528 58.6524 725.488 58.3484 724.368 58.3484ZM656.313 129.332V116.552H657.933V127.892H665.061V129.332H656.313ZM670.677 129.512C669.741 129.512 668.913 129.29 668.193 128.846C667.485 128.39 666.933 127.796 666.537 127.064C666.141 126.32 665.943 125.516 665.943 124.652C665.943 123.776 666.141 122.972 666.537 122.24C666.945 121.496 667.503 120.902 668.211 120.458C668.931 120.002 669.753 119.774 670.677 119.774C671.613 119.774 672.435 120.002 673.143 120.458C673.863 120.902 674.421 121.496 674.817 122.24C675.225 122.972 675.429 123.776 675.429 124.652C675.429 125.516 675.225 126.32 674.817 127.064C674.421 127.796 673.869 128.39 673.161 128.846C672.453 129.29 671.625 129.512 670.677 129.512ZM667.563 124.67C667.563 125.318 667.701 125.906 667.977 126.434C668.265 126.962 668.643 127.382 669.111 127.694C669.579 127.994 670.101 128.144 670.677 128.144C671.253 128.144 671.775 127.988 672.243 127.676C672.723 127.364 673.101 126.944 673.377 126.416C673.665 125.876 673.809 125.282 673.809 124.634C673.809 123.986 673.665 123.398 673.377 122.87C673.101 122.342 672.723 121.922 672.243 121.61C671.775 121.298 671.253 121.142 670.677 121.142C670.101 121.142 669.579 121.304 669.111 121.628C668.643 121.94 668.265 122.36 667.977 122.888C667.701 123.416 667.563 124.01 667.563 124.67ZM682.316 121.322C681.524 121.334 680.822 121.538 680.21 121.934C679.61 122.318 679.184 122.852 678.932 123.536V129.332H677.348V119.936H678.824V122.114C679.148 121.466 679.574 120.944 680.102 120.548C680.642 120.14 681.206 119.912 681.794 119.864C681.914 119.864 682.016 119.864 682.1 119.864C682.184 119.864 682.256 119.87 682.316 119.882V121.322ZM688.045 129.512C687.109 129.512 686.281 129.29 685.561 128.846C684.841 128.402 684.277 127.808 683.869 127.064C683.461 126.32 683.257 125.51 683.257 124.634C683.257 123.746 683.461 122.936 683.869 122.204C684.277 121.472 684.841 120.884 685.561 120.44C686.293 119.996 687.127 119.774 688.063 119.774C689.011 119.774 689.833 120.002 690.529 120.458C691.237 120.902 691.783 121.49 692.167 122.222C692.563 122.942 692.761 123.722 692.761 124.562C692.761 124.826 692.749 125.03 692.725 125.174H684.931C684.979 125.786 685.147 126.332 685.435 126.812C685.735 127.28 686.119 127.652 686.587 127.928C687.055 128.192 687.559 128.324 688.099 128.324C688.675 128.324 689.215 128.18 689.719 127.892C690.235 127.604 690.589 127.226 690.781 126.758L692.149 127.136C691.849 127.832 691.327 128.402 690.583 128.846C689.839 129.29 688.993 129.512 688.045 129.512ZM684.877 124.076H691.285C691.237 123.464 691.063 122.924 690.763 122.456C690.463 121.988 690.079 121.622 689.611 121.358C689.143 121.094 688.627 120.962 688.063 120.962C687.511 120.962 687.001 121.094 686.533 121.358C686.065 121.622 685.681 121.988 685.381 122.456C685.093 122.924 684.925 123.464 684.877 124.076ZM708.688 129.332H707.104V124.076C707.104 123.092 706.942 122.366 706.618 121.898C706.306 121.43 705.838 121.196 705.214 121.196C704.578 121.196 704.002 121.43 703.486 121.898C702.97 122.354 702.604 122.948 702.388 123.68V129.332H700.804V124.076C700.804 123.08 700.648 122.354 700.336 121.898C700.024 121.43 699.556 121.196 698.932 121.196C698.308 121.196 697.732 121.424 697.204 121.88C696.688 122.324 696.322 122.918 696.106 123.662V129.332H694.522V119.936H695.962V121.952C696.346 121.256 696.844 120.722 697.456 120.35C698.068 119.966 698.758 119.774 699.526 119.774C700.306 119.774 700.93 119.99 701.398 120.422C701.866 120.842 702.154 121.388 702.262 122.06C703.102 120.536 704.296 119.774 705.844 119.774C706.564 119.774 707.128 119.948 707.536 120.296C707.956 120.632 708.25 121.1 708.418 121.7C708.598 122.288 708.688 122.96 708.688 123.716V129.332ZM715.703 118.172V116.192H717.287V118.172H715.703ZM715.703 129.332V119.936H717.287V129.332H715.703ZM724.91 129.512C724.142 129.512 723.458 129.32 722.858 128.936C722.258 128.552 721.784 128.066 721.436 127.478V133.166H719.852V119.936H721.256V121.7C721.628 121.124 722.114 120.662 722.714 120.314C723.314 119.954 723.968 119.774 724.676 119.774C725.324 119.774 725.918 119.906 726.458 120.17C726.998 120.434 727.466 120.794 727.862 121.25C728.258 121.706 728.564 122.228 728.78 122.816C729.008 123.392 729.122 123.998 729.122 124.634C729.122 125.522 728.942 126.338 728.582 127.082C728.234 127.826 727.742 128.42 727.106 128.864C726.47 129.296 725.738 129.512 724.91 129.512ZM724.424 128.144C725.048 128.144 725.588 127.976 726.044 127.64C726.5 127.304 726.854 126.866 727.106 126.326C727.37 125.786 727.502 125.222 727.502 124.634C727.502 123.998 727.358 123.416 727.07 122.888C726.794 122.36 726.41 121.94 725.918 121.628C725.438 121.304 724.892 121.142 724.28 121.142C723.908 121.142 723.512 121.238 723.092 121.43C722.684 121.622 722.324 121.88 722.012 122.204C721.712 122.516 721.52 122.864 721.436 123.248V125.93C721.7 126.554 722.102 127.082 722.642 127.514C723.194 127.934 723.788 128.144 724.424 128.144ZM734.289 129.512C733.509 129.512 732.777 129.386 732.093 129.134C731.409 128.87 730.821 128.48 730.329 127.964L730.941 126.848C731.481 127.352 732.021 127.712 732.561 127.928C733.101 128.144 733.653 128.252 734.217 128.252C734.865 128.252 735.393 128.132 735.801 127.892C736.209 127.64 736.413 127.274 736.413 126.794C736.413 126.446 736.305 126.188 736.089 126.02C735.885 125.852 735.591 125.714 735.207 125.606C734.823 125.486 734.367 125.354 733.839 125.21C732.867 124.934 732.123 124.61 731.607 124.238C731.103 123.854 730.851 123.296 730.851 122.564C730.851 121.676 731.187 120.992 731.859 120.512C732.543 120.02 733.413 119.774 734.469 119.774C735.885 119.774 737.001 120.2 737.817 121.052L737.097 122.15C736.365 121.394 735.459 121.016 734.379 121.016C734.055 121.016 733.737 121.058 733.425 121.142C733.113 121.214 732.855 121.352 732.651 121.556C732.447 121.748 732.345 122.024 732.345 122.384C732.345 122.828 732.525 123.146 732.885 123.338C733.245 123.53 733.773 123.728 734.469 123.932C735.177 124.136 735.789 124.34 736.305 124.544C736.833 124.748 737.241 125.012 737.529 125.336C737.817 125.66 737.961 126.11 737.961 126.686C737.961 127.574 737.625 128.27 736.953 128.774C736.281 129.266 735.393 129.512 734.289 129.512ZM739.766 125.57V119.936H741.35V125.264C741.35 127.184 742.016 128.144 743.348 128.144C743.996 128.144 744.602 127.94 745.166 127.532C745.742 127.112 746.168 126.542 746.444 125.822V119.936H748.028V127.532C748.028 127.904 748.196 128.096 748.532 128.108V129.332C748.352 129.356 748.208 129.368 748.1 129.368C748.004 129.38 747.908 129.386 747.812 129.386C747.512 129.386 747.254 129.296 747.038 129.116C746.822 128.924 746.708 128.69 746.696 128.414L746.66 127.316C746.252 128.012 745.7 128.552 745.004 128.936C744.32 129.32 743.57 129.512 742.754 129.512C740.762 129.512 739.766 128.198 739.766 125.57ZM764.832 129.332H763.248V124.076C763.248 123.092 763.086 122.366 762.762 121.898C762.45 121.43 761.982 121.196 761.358 121.196C760.722 121.196 760.146 121.43 759.63 121.898C759.114 122.354 758.748 122.948 758.532 123.68V129.332H756.948V124.076C756.948 123.08 756.792 122.354 756.48 121.898C756.168 121.43 755.7 121.196 755.076 121.196C754.452 121.196 753.876 121.424 753.348 121.88C752.832 122.324 752.466 122.918 752.25 123.662V129.332H750.666V119.936H752.106V121.952C752.49 121.256 752.988 120.722 753.6 120.35C754.212 119.966 754.902 119.774 755.67 119.774C756.45 119.774 757.074 119.99 757.542 120.422C758.01 120.842 758.298 121.388 758.406 122.06C759.246 120.536 760.44 119.774 761.988 119.774C762.708 119.774 763.272 119.948 763.68 120.296C764.1 120.632 764.394 121.1 764.562 121.7C764.742 122.288 764.832 122.96 764.832 123.716V129.332Z" fill="white"/>
<line x1="413.3" y1="1.74808e-08" x2="413.3" y2="167.889" stroke="white"/>
<line x1="413.3" y1="1.74808e-08" x2="413.3" y2="167.889" stroke="white"/>
<line x1="611.7" y1="1.71735e-08" x2="611.7" y2="167.889" stroke="white"/>
<line x1="611.7" y1="1.71735e-08" x2="611.7" y2="167.889" stroke="white"/>
<path d="M509.412 74.5244V80.3324H489.924V74.5244H496.74V59.9804C496.356 60.4604 495.7 60.9724 494.772 61.5164C493.876 62.0604 492.884 62.5244 491.796 62.9084C490.74 63.2924 489.796 63.4844 488.964 63.4844V57.4844C489.54 57.4844 490.228 57.3084 491.028 56.9564C491.86 56.5724 492.676 56.1244 493.476 55.6124C494.308 55.1004 495.012 54.6044 495.588 54.1244C496.196 53.6124 496.58 53.2124 496.74 52.9244H503.316V74.5244H509.412ZM523.146 87.4844C520.682 87.4844 518.458 86.9564 516.474 85.9004C514.49 84.8444 512.986 83.4044 511.962 81.5804L515.658 77.7404C516.554 78.9884 517.674 79.9804 519.018 80.7164C520.362 81.4524 521.754 81.8204 523.194 81.8204C524.922 81.8204 526.33 81.2924 527.418 80.2364C528.538 79.1804 529.098 77.8044 529.098 76.1084C529.098 74.4444 528.57 73.1004 527.514 72.0764C526.458 71.0524 525.146 70.5404 523.578 70.5404C522.522 70.5404 521.53 70.7804 520.602 71.2604C519.706 71.7084 518.986 72.3644 518.442 73.2284H512.826L516.762 52.9244H533.562V58.7804H521.418L520.026 66.4124C520.41 66.0284 520.97 65.7084 521.706 65.4524C522.474 65.1644 523.402 65.0204 524.49 65.0204C526.634 65.0204 528.538 65.4844 530.202 66.4124C531.898 67.3404 533.226 68.6364 534.186 70.3004C535.178 71.9324 535.674 73.8204 535.674 75.9644C535.674 78.2684 535.13 80.2844 534.042 82.0124C532.954 83.7404 531.466 85.0844 529.578 86.0444C527.69 87.0044 525.546 87.4844 523.146 87.4844ZM457.913 129.332V116.552H459.533V127.892H466.661V129.332H457.913ZM472.277 129.512C471.341 129.512 470.513 129.29 469.793 128.846C469.085 128.39 468.533 127.796 468.137 127.064C467.741 126.32 467.543 125.516 467.543 124.652C467.543 123.776 467.741 122.972 468.137 122.24C468.545 121.496 469.103 120.902 469.811 120.458C470.531 120.002 471.353 119.774 472.277 119.774C473.213 119.774 474.035 120.002 474.743 120.458C475.463 120.902 476.021 121.496 476.417 122.24C476.825 122.972 477.029 123.776 477.029 124.652C477.029 125.516 476.825 126.32 476.417 127.064C476.021 127.796 475.469 128.39 474.761 128.846C474.053 129.29 473.225 129.512 472.277 129.512ZM469.163 124.67C469.163 125.318 469.301 125.906 469.577 126.434C469.865 126.962 470.243 127.382 470.711 127.694C471.179 127.994 471.701 128.144 472.277 128.144C472.853 128.144 473.375 127.988 473.843 127.676C474.323 127.364 474.701 126.944 474.977 126.416C475.265 125.876 475.409 125.282 475.409 124.634C475.409 123.986 475.265 123.398 474.977 122.87C474.701 122.342 474.323 121.922 473.843 121.61C473.375 121.298 472.853 121.142 472.277 121.142C471.701 121.142 471.179 121.304 470.711 121.628C470.243 121.94 469.865 122.36 469.577 122.888C469.301 123.416 469.163 124.01 469.163 124.67ZM483.916 121.322C483.124 121.334 482.422 121.538 481.81 121.934C481.21 122.318 480.784 122.852 480.532 123.536V129.332H478.948V119.936H480.424V122.114C480.748 121.466 481.174 120.944 481.702 120.548C482.242 120.14 482.806 119.912 483.394 119.864C483.514 119.864 483.616 119.864 483.7 119.864C483.784 119.864 483.856 119.87 483.916 119.882V121.322ZM489.645 129.512C488.709 129.512 487.881 129.29 487.161 128.846C486.441 128.402 485.877 127.808 485.469 127.064C485.061 126.32 484.857 125.51 484.857 124.634C484.857 123.746 485.061 122.936 485.469 122.204C485.877 121.472 486.441 120.884 487.161 120.44C487.893 119.996 488.727 119.774 489.663 119.774C490.611 119.774 491.433 120.002 492.129 120.458C492.837 120.902 493.383 121.49 493.767 122.222C494.163 122.942 494.361 123.722 494.361 124.562C494.361 124.826 494.349 125.03 494.325 125.174H486.531C486.579 125.786 486.747 126.332 487.035 126.812C487.335 127.28 487.719 127.652 488.187 127.928C488.655 128.192 489.159 128.324 489.699 128.324C490.275 128.324 490.815 128.18 491.319 127.892C491.835 127.604 492.189 127.226 492.381 126.758L493.749 127.136C493.449 127.832 492.927 128.402 492.183 128.846C491.439 129.29 490.593 129.512 489.645 129.512ZM486.477 124.076H492.885C492.837 123.464 492.663 122.924 492.363 122.456C492.063 121.988 491.679 121.622 491.211 121.358C490.743 121.094 490.227 120.962 489.663 120.962C489.111 120.962 488.601 121.094 488.133 121.358C487.665 121.622 487.281 121.988 486.981 122.456C486.693 122.924 486.525 123.464 486.477 124.076ZM510.288 129.332H508.704V124.076C508.704 123.092 508.542 122.366 508.218 121.898C507.906 121.43 507.438 121.196 506.814 121.196C506.178 121.196 505.602 121.43 505.086 121.898C504.57 122.354 504.204 122.948 503.988 123.68V129.332H502.404V124.076C502.404 123.08 502.248 122.354 501.936 121.898C501.624 121.43 501.156 121.196 500.532 121.196C499.908 121.196 499.332 121.424 498.804 121.88C498.288 122.324 497.922 122.918 497.706 123.662V129.332H496.122V119.936H497.562V121.952C497.946 121.256 498.444 120.722 499.056 120.35C499.668 119.966 500.358 119.774 501.126 119.774C501.906 119.774 502.53 119.99 502.998 120.422C503.466 120.842 503.754 121.388 503.862 122.06C504.702 120.536 505.896 119.774 507.444 119.774C508.164 119.774 508.728 119.948 509.136 120.296C509.556 120.632 509.85 121.1 510.018 121.7C510.198 122.288 510.288 122.96 510.288 123.716V129.332ZM517.303 118.172V116.192H518.887V118.172H517.303ZM517.303 129.332V119.936H518.887V129.332H517.303ZM526.51 129.512C525.742 129.512 525.058 129.32 524.458 128.936C523.858 128.552 523.384 128.066 523.036 127.478V133.166H521.452V119.936H522.856V121.7C523.228 121.124 523.714 120.662 524.314 120.314C524.914 119.954 525.568 119.774 526.276 119.774C526.924 119.774 527.518 119.906 528.058 120.17C528.598 120.434 529.066 120.794 529.462 121.25C529.858 121.706 530.164 122.228 530.38 122.816C530.608 123.392 530.722 123.998 530.722 124.634C530.722 125.522 530.542 126.338 530.182 127.082C529.834 127.826 529.342 128.42 528.706 128.864C528.07 129.296 527.338 129.512 526.51 129.512ZM526.024 128.144C526.648 128.144 527.188 127.976 527.644 127.64C528.1 127.304 528.454 126.866 528.706 126.326C528.97 125.786 529.102 125.222 529.102 124.634C529.102 123.998 528.958 123.416 528.67 122.888C528.394 122.36 528.01 121.94 527.518 121.628C527.038 121.304 526.492 121.142 525.88 121.142C525.508 121.142 525.112 121.238 524.692 121.43C524.284 121.622 523.924 121.88 523.612 122.204C523.312 122.516 523.12 122.864 523.036 123.248V125.93C523.3 126.554 523.702 127.082 524.242 127.514C524.794 127.934 525.388 128.144 526.024 128.144ZM535.889 129.512C535.109 129.512 534.377 129.386 533.693 129.134C533.009 128.87 532.421 128.48 531.929 127.964L532.541 126.848C533.081 127.352 533.621 127.712 534.161 127.928C534.701 128.144 535.253 128.252 535.817 128.252C536.465 128.252 536.993 128.132 537.401 127.892C537.809 127.64 538.013 127.274 538.013 126.794C538.013 126.446 537.905 126.188 537.689 126.02C537.485 125.852 537.191 125.714 536.807 125.606C536.423 125.486 535.967 125.354 535.439 125.21C534.467 124.934 533.723 124.61 533.207 124.238C532.703 123.854 532.451 123.296 532.451 122.564C532.451 121.676 532.787 120.992 533.459 120.512C534.143 120.02 535.013 119.774 536.069 119.774C537.485 119.774 538.601 120.2 539.417 121.052L538.697 122.15C537.965 121.394 537.059 121.016 535.979 121.016C535.655 121.016 535.337 121.058 535.025 121.142C534.713 121.214 534.455 121.352 534.251 121.556C534.047 121.748 533.945 122.024 533.945 122.384C533.945 122.828 534.125 123.146 534.485 123.338C534.845 123.53 535.373 123.728 536.069 123.932C536.777 124.136 537.389 124.34 537.905 124.544C538.433 124.748 538.841 125.012 539.129 125.336C539.417 125.66 539.561 126.11 539.561 126.686C539.561 127.574 539.225 128.27 538.553 128.774C537.881 129.266 536.993 129.512 535.889 129.512ZM541.366 125.57V119.936H542.95V125.264C542.95 127.184 543.616 128.144 544.948 128.144C545.596 128.144 546.202 127.94 546.766 127.532C547.342 127.112 547.768 126.542 548.044 125.822V119.936H549.628V127.532C549.628 127.904 549.796 128.096 550.132 128.108V129.332C549.952 129.356 549.808 129.368 549.7 129.368C549.604 129.38 549.508 129.386 549.412 129.386C549.112 129.386 548.854 129.296 548.638 129.116C548.422 128.924 548.308 128.69 548.296 128.414L548.26 127.316C547.852 128.012 547.3 128.552 546.604 128.936C545.92 129.32 545.17 129.512 544.354 129.512C542.362 129.512 541.366 128.198 541.366 125.57ZM566.432 129.332H564.848V124.076C564.848 123.092 564.686 122.366 564.362 121.898C564.05 121.43 563.582 121.196 562.958 121.196C562.322 121.196 561.746 121.43 561.23 121.898C560.714 122.354 560.348 122.948 560.132 123.68V129.332H558.548V124.076C558.548 123.08 558.392 122.354 558.08 121.898C557.768 121.43 557.3 121.196 556.676 121.196C556.052 121.196 555.476 121.424 554.948 121.88C554.432 122.324 554.066 122.918 553.85 123.662V129.332H552.266V119.936H553.706V121.952C554.09 121.256 554.588 120.722 555.2 120.35C555.812 119.966 556.502 119.774 557.27 119.774C558.05 119.774 558.674 119.99 559.142 120.422C559.61 120.842 559.898 121.388 560.006 122.06C560.846 120.536 562.04 119.774 563.588 119.774C564.308 119.774 564.872 119.948 565.28 120.296C565.7 120.632 565.994 121.1 566.162 121.7C566.342 122.288 566.432 122.96 566.432 123.716V129.332Z" fill="white"/>
<line x1="214.9" y1="1.74808e-08" x2="214.9" y2="167.889" stroke="white"/>
<line x1="214.9" y1="1.74808e-08" x2="214.9" y2="167.889" stroke="white"/>
<line x1="413.3" y1="1.71735e-08" x2="413.3" y2="167.889" stroke="white"/>
<line x1="413.3" y1="1.71735e-08" x2="413.3" y2="167.889" stroke="white"/>
<path d="M297.371 74.5244V80.3324H277.883V74.5244H284.699V59.9804C284.315 60.4604 283.659 60.9724 282.731 61.5164C281.835 62.0604 280.843 62.5244 279.755 62.9084C278.699 63.2924 277.755 63.4844 276.923 63.4844V57.4844C277.499 57.4844 278.187 57.3084 278.987 56.9564C279.819 56.5724 280.635 56.1244 281.435 55.6124C282.267 55.1004 282.971 54.6044 283.547 54.1244C284.155 53.6124 284.539 53.2124 284.699 52.9244H291.275V74.5244H297.371ZM300.354 80.3324C300.354 78.4444 300.562 76.7644 300.978 75.2924C301.426 73.8204 302.194 72.4924 303.282 71.3084C304.37 70.1244 305.906 68.9724 307.89 67.8524C309.65 66.9244 311.122 66.1404 312.306 65.5004C313.49 64.8604 314.386 64.2524 314.994 63.6764C315.634 63.0684 315.954 62.3644 315.954 61.5644C315.954 60.6044 315.57 59.7884 314.802 59.1164C314.034 58.4124 312.946 58.0604 311.538 58.0604C310.002 58.0604 308.674 58.4284 307.554 59.1644C306.466 59.9004 305.522 60.7484 304.722 61.7084L300.642 57.0044C301.218 56.3964 302.082 55.7404 303.234 55.0364C304.386 54.3324 305.762 53.7244 307.362 53.2124C308.962 52.7004 310.722 52.4444 312.642 52.4444C315.906 52.4444 318.434 53.2124 320.226 54.7484C322.05 56.2524 322.962 58.2044 322.962 60.6044C322.962 62.1084 322.61 63.3884 321.906 64.4444C321.234 65.4684 320.386 66.3484 319.362 67.0844C318.37 67.7884 317.41 68.4124 316.482 68.9564C314.434 69.9804 312.818 70.8764 311.634 71.6444C310.482 72.4124 309.554 73.3724 308.85 74.5244H323.49V80.3324H300.354ZM343.911 69.0044C345.895 69.3244 347.495 70.2844 348.711 71.8844C349.959 73.4524 350.583 75.3404 350.583 77.5484C350.583 79.5644 350.071 81.3084 349.047 82.7804C348.023 84.2524 346.567 85.3884 344.679 86.1884C342.823 86.9884 340.631 87.3884 338.103 87.3884C333.239 87.3884 329.527 85.8524 326.967 82.7804L330.615 78.2204C331.447 79.2764 332.439 80.0924 333.591 80.6684C334.775 81.2444 336.215 81.5324 337.911 81.5324C339.863 81.5324 341.351 81.1324 342.375 80.3324C343.399 79.5644 343.911 78.3964 343.911 76.8284C343.911 75.1644 343.319 73.8844 342.135 72.9884C340.951 72.0924 339.159 71.6444 336.759 71.6444H335.415V66.8444H336.903C338.855 66.8444 340.375 66.4124 341.463 65.5484C342.583 64.6524 343.143 63.5164 343.143 62.1404C343.143 60.8604 342.695 59.9004 341.799 59.2604C340.903 58.5884 339.735 58.2524 338.295 58.2524C335.319 58.2524 333.047 59.5324 331.479 62.0924L327.447 57.5804C328.119 56.6204 329.031 55.7724 330.183 55.0364C331.367 54.3004 332.711 53.7244 334.215 53.3084C335.751 52.8924 337.351 52.6844 339.015 52.6844C341.191 52.6844 343.095 53.0364 344.727 53.7404C346.391 54.4444 347.687 55.4364 348.615 56.7164C349.543 57.9964 350.007 59.4844 350.007 61.1804C350.007 62.4604 349.751 63.6604 349.239 64.7804C348.727 65.8684 348.007 66.7964 347.079 67.5644C346.183 68.3004 345.127 68.7804 343.911 69.0044ZM259.513 129.332V116.552H261.133V127.892H268.261V129.332H259.513ZM273.877 129.512C272.941 129.512 272.113 129.29 271.393 128.846C270.685 128.39 270.133 127.796 269.737 127.064C269.341 126.32 269.143 125.516 269.143 124.652C269.143 123.776 269.341 122.972 269.737 122.24C270.145 121.496 270.703 120.902 271.411 120.458C272.131 120.002 272.953 119.774 273.877 119.774C274.813 119.774 275.635 120.002 276.343 120.458C277.063 120.902 277.621 121.496 278.017 122.24C278.425 122.972 278.629 123.776 278.629 124.652C278.629 125.516 278.425 126.32 278.017 127.064C277.621 127.796 277.069 128.39 276.361 128.846C275.653 129.29 274.825 129.512 273.877 129.512ZM270.763 124.67C270.763 125.318 270.901 125.906 271.177 126.434C271.465 126.962 271.843 127.382 272.311 127.694C272.779 127.994 273.301 128.144 273.877 128.144C274.453 128.144 274.975 127.988 275.443 127.676C275.923 127.364 276.301 126.944 276.577 126.416C276.865 125.876 277.009 125.282 277.009 124.634C277.009 123.986 276.865 123.398 276.577 122.87C276.301 122.342 275.923 121.922 275.443 121.61C274.975 121.298 274.453 121.142 273.877 121.142C273.301 121.142 272.779 121.304 272.311 121.628C271.843 121.94 271.465 122.36 271.177 122.888C270.901 123.416 270.763 124.01 270.763 124.67ZM285.516 121.322C284.724 121.334 284.022 121.538 283.41 121.934C282.81 122.318 282.384 122.852 282.132 123.536V129.332H280.548V119.936H282.024V122.114C282.348 121.466 282.774 120.944 283.302 120.548C283.842 120.14 284.406 119.912 284.994 119.864C285.114 119.864 285.216 119.864 285.3 119.864C285.384 119.864 285.456 119.87 285.516 119.882V121.322ZM291.245 129.512C290.309 129.512 289.481 129.29 288.761 128.846C288.041 128.402 287.477 127.808 287.069 127.064C286.661 126.32 286.457 125.51 286.457 124.634C286.457 123.746 286.661 122.936 287.069 122.204C287.477 121.472 288.041 120.884 288.761 120.44C289.493 119.996 290.327 119.774 291.263 119.774C292.211 119.774 293.033 120.002 293.729 120.458C294.437 120.902 294.983 121.49 295.367 122.222C295.763 122.942 295.961 123.722 295.961 124.562C295.961 124.826 295.949 125.03 295.925 125.174H288.131C288.179 125.786 288.347 126.332 288.635 126.812C288.935 127.28 289.319 127.652 289.787 127.928C290.255 128.192 290.759 128.324 291.299 128.324C291.875 128.324 292.415 128.18 292.919 127.892C293.435 127.604 293.789 127.226 293.981 126.758L295.349 127.136C295.049 127.832 294.527 128.402 293.783 128.846C293.039 129.29 292.193 129.512 291.245 129.512ZM288.077 124.076H294.485C294.437 123.464 294.263 122.924 293.963 122.456C293.663 121.988 293.279 121.622 292.811 121.358C292.343 121.094 291.827 120.962 291.263 120.962C290.711 120.962 290.201 121.094 289.733 121.358C289.265 121.622 288.881 121.988 288.581 122.456C288.293 122.924 288.125 123.464 288.077 124.076ZM311.888 129.332H310.304V124.076C310.304 123.092 310.142 122.366 309.818 121.898C309.506 121.43 309.038 121.196 308.414 121.196C307.778 121.196 307.202 121.43 306.686 121.898C306.17 122.354 305.804 122.948 305.588 123.68V129.332H304.004V124.076C304.004 123.08 303.848 122.354 303.536 121.898C303.224 121.43 302.756 121.196 302.132 121.196C301.508 121.196 300.932 121.424 300.404 121.88C299.888 122.324 299.522 122.918 299.306 123.662V129.332H297.722V119.936H299.162V121.952C299.546 121.256 300.044 120.722 300.656 120.35C301.268 119.966 301.958 119.774 302.726 119.774C303.506 119.774 304.13 119.99 304.598 120.422C305.066 120.842 305.354 121.388 305.462 122.06C306.302 120.536 307.496 119.774 309.044 119.774C309.764 119.774 310.328 119.948 310.736 120.296C311.156 120.632 311.45 121.1 311.618 121.7C311.798 122.288 311.888 122.96 311.888 123.716V129.332ZM318.903 118.172V116.192H320.487V118.172H318.903ZM318.903 129.332V119.936H320.487V129.332H318.903ZM328.11 129.512C327.342 129.512 326.658 129.32 326.058 128.936C325.458 128.552 324.984 128.066 324.636 127.478V133.166H323.052V119.936H324.456V121.7C324.828 121.124 325.314 120.662 325.914 120.314C326.514 119.954 327.168 119.774 327.876 119.774C328.524 119.774 329.118 119.906 329.658 120.17C330.198 120.434 330.666 120.794 331.062 121.25C331.458 121.706 331.764 122.228 331.98 122.816C332.208 123.392 332.322 123.998 332.322 124.634C332.322 125.522 332.142 126.338 331.782 127.082C331.434 127.826 330.942 128.42 330.306 128.864C329.67 129.296 328.938 129.512 328.11 129.512ZM327.624 128.144C328.248 128.144 328.788 127.976 329.244 127.64C329.7 127.304 330.054 126.866 330.306 126.326C330.57 125.786 330.702 125.222 330.702 124.634C330.702 123.998 330.558 123.416 330.27 122.888C329.994 122.36 329.61 121.94 329.118 121.628C328.638 121.304 328.092 121.142 327.48 121.142C327.108 121.142 326.712 121.238 326.292 121.43C325.884 121.622 325.524 121.88 325.212 122.204C324.912 122.516 324.72 122.864 324.636 123.248V125.93C324.9 126.554 325.302 127.082 325.842 127.514C326.394 127.934 326.988 128.144 327.624 128.144ZM337.489 129.512C336.709 129.512 335.977 129.386 335.293 129.134C334.609 128.87 334.021 128.48 333.529 127.964L334.141 126.848C334.681 127.352 335.221 127.712 335.761 127.928C336.301 128.144 336.853 128.252 337.417 128.252C338.065 128.252 338.593 128.132 339.001 127.892C339.409 127.64 339.613 127.274 339.613 126.794C339.613 126.446 339.505 126.188 339.289 126.02C339.085 125.852 338.791 125.714 338.407 125.606C338.023 125.486 337.567 125.354 337.039 125.21C336.067 124.934 335.323 124.61 334.807 124.238C334.303 123.854 334.051 123.296 334.051 122.564C334.051 121.676 334.387 120.992 335.059 120.512C335.743 120.02 336.613 119.774 337.669 119.774C339.085 119.774 340.201 120.2 341.017 121.052L340.297 122.15C339.565 121.394 338.659 121.016 337.579 121.016C337.255 121.016 336.937 121.058 336.625 121.142C336.313 121.214 336.055 121.352 335.851 121.556C335.647 121.748 335.545 122.024 335.545 122.384C335.545 122.828 335.725 123.146 336.085 123.338C336.445 123.53 336.973 123.728 337.669 123.932C338.377 124.136 338.989 124.34 339.505 124.544C340.033 124.748 340.441 125.012 340.729 125.336C341.017 125.66 341.161 126.11 341.161 126.686C341.161 127.574 340.825 128.27 340.153 128.774C339.481 129.266 338.593 129.512 337.489 129.512ZM342.966 125.57V119.936H344.55V125.264C344.55 127.184 345.216 128.144 346.548 128.144C347.196 128.144 347.802 127.94 348.366 127.532C348.942 127.112 349.368 126.542 349.644 125.822V119.936H351.228V127.532C351.228 127.904 351.396 128.096 351.732 128.108V129.332C351.552 129.356 351.408 129.368 351.3 129.368C351.204 129.38 351.108 129.386 351.012 129.386C350.712 129.386 350.454 129.296 350.238 129.116C350.022 128.924 349.908 128.69 349.896 128.414L349.86 127.316C349.452 128.012 348.9 128.552 348.204 128.936C347.52 129.32 346.77 129.512 345.954 129.512C343.962 129.512 342.966 128.198 342.966 125.57ZM368.032 129.332H366.448V124.076C366.448 123.092 366.286 122.366 365.962 121.898C365.65 121.43 365.182 121.196 364.558 121.196C363.922 121.196 363.346 121.43 362.83 121.898C362.314 122.354 361.948 122.948 361.732 123.68V129.332H360.148V124.076C360.148 123.08 359.992 122.354 359.68 121.898C359.368 121.43 358.9 121.196 358.276 121.196C357.652 121.196 357.076 121.424 356.548 121.88C356.032 122.324 355.666 122.918 355.45 123.662V129.332H353.866V119.936H355.306V121.952C355.69 121.256 356.188 120.722 356.8 120.35C357.412 119.966 358.102 119.774 358.87 119.774C359.65 119.774 360.274 119.99 360.742 120.422C361.21 120.842 361.498 121.388 361.606 122.06C362.446 120.536 363.64 119.774 365.188 119.774C365.908 119.774 366.472 119.948 366.88 120.296C367.3 120.632 367.594 121.1 367.762 121.7C367.942 122.288 368.032 122.96 368.032 123.716V129.332Z" fill="white"/>
<line x1="16.5" y1="1.9425e-08" x2="16.5" y2="167.889" stroke="white"/>
<line x1="16.5" y1="1.9425e-08" x2="16.5" y2="167.889" stroke="white"/>
<line x1="214.9" y1="1.71735e-08" x2="214.9" y2="167.889" stroke="white"/>
<line x1="214.9" y1="1.71735e-08" x2="214.9" y2="167.889" stroke="white"/>
<path d="M102.918 86.4284V79.2764H88.9022V73.5644L104.982 52.9244H109.35V73.5164H113.574V79.2764H109.35V86.4284H102.918ZM95.3342 73.5164H103.638V62.6684L95.3342 73.5164ZM117.188 80.3324C117.188 78.4444 117.396 76.7644 117.812 75.2924C118.26 73.8204 119.028 72.4924 120.116 71.3084C121.204 70.1244 122.74 68.9724 124.724 67.8524C126.484 66.9244 127.956 66.1404 129.14 65.5004C130.324 64.8604 131.22 64.2524 131.828 63.6764C132.468 63.0684 132.788 62.3644 132.788 61.5644C132.788 60.6044 132.404 59.7884 131.636 59.1164C130.868 58.4124 129.78 58.0604 128.372 58.0604C126.836 58.0604 125.508 58.4284 124.388 59.1644C123.3 59.9004 122.356 60.7484 121.556 61.7084L117.476 57.0044C118.052 56.3964 118.916 55.7404 120.068 55.0364C121.22 54.3324 122.596 53.7244 124.196 53.2124C125.796 52.7004 127.556 52.4444 129.476 52.4444C132.74 52.4444 135.268 53.2124 137.06 54.7484C138.884 56.2524 139.796 58.2044 139.796 60.6044C139.796 62.1084 139.444 63.3884 138.74 64.4444C138.068 65.4684 137.22 66.3484 136.196 67.0844C135.204 67.7884 134.244 68.4124 133.316 68.9564C131.268 69.9804 129.652 70.8764 128.468 71.6444C127.316 72.4124 126.388 73.3724 125.684 74.5244H140.324V80.3324H117.188ZM61.1128 129.332V116.552H62.7328V127.892H69.8608V129.332H61.1128ZM75.4765 129.512C74.5405 129.512 73.7125 129.29 72.9925 128.846C72.2845 128.39 71.7325 127.796 71.3365 127.064C70.9405 126.32 70.7425 125.516 70.7425 124.652C70.7425 123.776 70.9405 122.972 71.3365 122.24C71.7445 121.496 72.3025 120.902 73.0105 120.458C73.7305 120.002 74.5525 119.774 75.4765 119.774C76.4125 119.774 77.2345 120.002 77.9425 120.458C78.6625 120.902 79.2205 121.496 79.6165 122.24C80.0245 122.972 80.2285 123.776 80.2285 124.652C80.2285 125.516 80.0245 126.32 79.6165 127.064C79.2205 127.796 78.6685 128.39 77.9605 128.846C77.2525 129.29 76.4245 129.512 75.4765 129.512ZM72.3625 124.67C72.3625 125.318 72.5005 125.906 72.7765 126.434C73.0645 126.962 73.4425 127.382 73.9105 127.694C74.3785 127.994 74.9005 128.144 75.4765 128.144C76.0525 128.144 76.5745 127.988 77.0425 127.676C77.5225 127.364 77.9005 126.944 78.1765 126.416C78.4645 125.876 78.6085 125.282 78.6085 124.634C78.6085 123.986 78.4645 123.398 78.1765 122.87C77.9005 122.342 77.5225 121.922 77.0425 121.61C76.5745 121.298 76.0525 121.142 75.4765 121.142C74.9005 121.142 74.3785 121.304 73.9105 121.628C73.4425 121.94 73.0645 122.36 72.7765 122.888C72.5005 123.416 72.3625 124.01 72.3625 124.67ZM87.1159 121.322C86.3239 121.334 85.6219 121.538 85.0099 121.934C84.4099 122.318 83.9839 122.852 83.7319 123.536V129.332H82.1479V119.936H83.6239V122.114C83.9479 121.466 84.3739 120.944 84.9019 120.548C85.4419 120.14 86.0059 119.912 86.5939 119.864C86.7139 119.864 86.8159 119.864 86.8999 119.864C86.9839 119.864 87.0559 119.87 87.1159 119.882V121.322ZM92.845 129.512C91.909 129.512 91.081 129.29 90.361 128.846C89.641 128.402 89.077 127.808 88.669 127.064C88.261 126.32 88.057 125.51 88.057 124.634C88.057 123.746 88.261 122.936 88.669 122.204C89.077 121.472 89.641 120.884 90.361 120.44C91.093 119.996 91.927 119.774 92.863 119.774C93.811 119.774 94.633 120.002 95.329 120.458C96.037 120.902 96.583 121.49 96.967 122.222C97.363 122.942 97.561 123.722 97.561 124.562C97.561 124.826 97.549 125.03 97.525 125.174H89.731C89.779 125.786 89.947 126.332 90.235 126.812C90.535 127.28 90.919 127.652 91.387 127.928C91.855 128.192 92.359 128.324 92.899 128.324C93.475 128.324 94.015 128.18 94.519 127.892C95.035 127.604 95.389 127.226 95.581 126.758L96.949 127.136C96.649 127.832 96.127 128.402 95.383 128.846C94.639 129.29 93.793 129.512 92.845 129.512ZM89.677 124.076H96.085C96.037 123.464 95.863 122.924 95.563 122.456C95.263 121.988 94.879 121.622 94.411 121.358C93.943 121.094 93.427 120.962 92.863 120.962C92.311 120.962 91.801 121.094 91.333 121.358C90.865 121.622 90.481 121.988 90.181 122.456C89.893 122.924 89.725 123.464 89.677 124.076ZM113.488 129.332H111.904V124.076C111.904 123.092 111.742 122.366 111.418 121.898C111.106 121.43 110.638 121.196 110.014 121.196C109.378 121.196 108.802 121.43 108.286 121.898C107.77 122.354 107.404 122.948 107.188 123.68V129.332H105.604V124.076C105.604 123.08 105.448 122.354 105.136 121.898C104.824 121.43 104.356 121.196 103.732 121.196C103.108 121.196 102.532 121.424 102.004 121.88C101.488 122.324 101.122 122.918 100.906 123.662V129.332H99.3217V119.936H100.762V121.952C101.146 121.256 101.644 120.722 102.256 120.35C102.868 119.966 103.558 119.774 104.326 119.774C105.106 119.774 105.73 119.99 106.198 120.422C106.666 120.842 106.954 121.388 107.062 122.06C107.902 120.536 109.096 119.774 110.644 119.774C111.364 119.774 111.928 119.948 112.336 120.296C112.756 120.632 113.05 121.1 113.218 121.7C113.398 122.288 113.488 122.96 113.488 123.716V129.332ZM120.503 118.172V116.192H122.087V118.172H120.503ZM120.503 129.332V119.936H122.087V129.332H120.503ZM129.71 129.512C128.942 129.512 128.258 129.32 127.658 128.936C127.058 128.552 126.584 128.066 126.236 127.478V133.166H124.652V119.936H126.056V121.7C126.428 121.124 126.914 120.662 127.514 120.314C128.114 119.954 128.768 119.774 129.476 119.774C130.124 119.774 130.718 119.906 131.258 120.17C131.798 120.434 132.266 120.794 132.662 121.25C133.058 121.706 133.364 122.228 133.58 122.816C133.808 123.392 133.922 123.998 133.922 124.634C133.922 125.522 133.742 126.338 133.382 127.082C133.034 127.826 132.542 128.42 131.906 128.864C131.27 129.296 130.538 129.512 129.71 129.512ZM129.224 128.144C129.848 128.144 130.388 127.976 130.844 127.64C131.3 127.304 131.654 126.866 131.906 126.326C132.17 125.786 132.302 125.222 132.302 124.634C132.302 123.998 132.158 123.416 131.87 122.888C131.594 122.36 131.21 121.94 130.718 121.628C130.238 121.304 129.692 121.142 129.08 121.142C128.708 121.142 128.312 121.238 127.892 121.43C127.484 121.622 127.124 121.88 126.812 122.204C126.512 122.516 126.32 122.864 126.236 123.248V125.93C126.5 126.554 126.902 127.082 127.442 127.514C127.994 127.934 128.588 128.144 129.224 128.144ZM139.089 129.512C138.309 129.512 137.577 129.386 136.893 129.134C136.209 128.87 135.621 128.48 135.129 127.964L135.741 126.848C136.281 127.352 136.821 127.712 137.361 127.928C137.901 128.144 138.453 128.252 139.017 128.252C139.665 128.252 140.193 128.132 140.601 127.892C141.009 127.64 141.213 127.274 141.213 126.794C141.213 126.446 141.105 126.188 140.889 126.02C140.685 125.852 140.391 125.714 140.007 125.606C139.623 125.486 139.167 125.354 138.639 125.21C137.667 124.934 136.923 124.61 136.407 124.238C135.903 123.854 135.651 123.296 135.651 122.564C135.651 121.676 135.987 120.992 136.659 120.512C137.343 120.02 138.213 119.774 139.269 119.774C140.685 119.774 141.801 120.2 142.617 121.052L141.897 122.15C141.165 121.394 140.259 121.016 139.179 121.016C138.855 121.016 138.537 121.058 138.225 121.142C137.913 121.214 137.655 121.352 137.451 121.556C137.247 121.748 137.145 122.024 137.145 122.384C137.145 122.828 137.325 123.146 137.685 123.338C138.045 123.53 138.573 123.728 139.269 123.932C139.977 124.136 140.589 124.34 141.105 124.544C141.633 124.748 142.041 125.012 142.329 125.336C142.617 125.66 142.761 126.11 142.761 126.686C142.761 127.574 142.425 128.27 141.753 128.774C141.081 129.266 140.193 129.512 139.089 129.512ZM144.566 125.57V119.936H146.15V125.264C146.15 127.184 146.816 128.144 148.148 128.144C148.796 128.144 149.402 127.94 149.966 127.532C150.542 127.112 150.968 126.542 151.244 125.822V119.936H152.828V127.532C152.828 127.904 152.996 128.096 153.332 128.108V129.332C153.152 129.356 153.008 129.368 152.9 129.368C152.804 129.38 152.708 129.386 152.612 129.386C152.312 129.386 152.054 129.296 151.838 129.116C151.622 128.924 151.508 128.69 151.496 128.414L151.46 127.316C151.052 128.012 150.5 128.552 149.804 128.936C149.12 129.32 148.37 129.512 147.554 129.512C145.562 129.512 144.566 128.198 144.566 125.57ZM169.632 129.332H168.048V124.076C168.048 123.092 167.886 122.366 167.562 121.898C167.25 121.43 166.782 121.196 166.158 121.196C165.522 121.196 164.946 121.43 164.43 121.898C163.914 122.354 163.548 122.948 163.332 123.68V129.332H161.748V124.076C161.748 123.08 161.592 122.354 161.28 121.898C160.968 121.43 160.5 121.196 159.876 121.196C159.252 121.196 158.676 121.424 158.148 121.88C157.632 122.324 157.266 122.918 157.05 123.662V129.332H155.466V119.936H156.906V121.952C157.29 121.256 157.788 120.722 158.4 120.35C159.012 119.966 159.702 119.774 160.47 119.774C161.25 119.774 161.874 119.99 162.342 120.422C162.81 120.842 163.098 121.388 163.206 122.06C164.046 120.536 165.24 119.774 166.788 119.774C167.508 119.774 168.072 119.948 168.48 120.296C168.9 120.632 169.194 121.1 169.362 121.7C169.542 122.288 169.632 122.96 169.632 123.716V129.332Z" fill="white"/>
</svg>
